<?xml version="1.0" standalone="no"?>
<!DOCTYPE svg PUBLIC "-//W3C//DTD SVG 20010904//EN"
 "http://www.w3.org/TR/2001/REC-SVG-20010904/DTD/svg10.dtd">
<svg version="1.0" xmlns="http://www.w3.org/2000/svg"
 width="2057.000000pt" height="1302.000000pt" viewBox="0 0 2057.000000 1302.000000"
 preserveAspectRatio="xMidYMid meet">

<g transform="translate(0.000000,1302.000000) scale(0.100000,-0.100000)"
fill="#000000" stroke="none">
<path d="M15673 5935 c-71 -22 -132 -63 -214 -146 -286 -289 -545 -941 -575
-1449 -7 -131 5 -201 52 -285 106 -188 367 -280 543 -190 93 47 231 191 231
241 0 30 -46 66 -74 58 -12 -3 -38 -26 -60 -50 -48 -56 -107 -87 -164 -86
-130 3 -192 143 -162 364 l12 93 82 85 c264 274 541 705 635 987 41 120 41
180 1 249 -68 119 -184 168 -307 129z m192 -208 c25 -98 -204 -590 -398 -857
-49 -67 -147 -173 -154 -167 -2 2 12 58 31 123 102 355 325 819 434 905 35 27
80 25 87 -4z"/>
<path d="M8170 3110 l0 -290 55 0 55 0 0 56 c0 40 6 64 21 85 11 16 24 29 28
29 4 0 29 -38 55 -85 l47 -85 59 0 c33 0 60 3 60 6 0 3 -31 60 -70 126 -38 66
-70 123 -70 126 0 2 27 35 60 72 33 37 60 70 60 74 0 3 -26 6 -58 6 l-58 0
-60 -75 c-32 -41 -62 -74 -66 -75 -5 0 -8 72 -8 160 l0 160 -55 0 -55 0 0
-290z"/>
<path d="M8630 3350 l0 -50 55 0 55 0 0 50 0 50 -55 0 -55 0 0 -50z"/>
<path d="M9110 3300 c0 -55 -3 -100 -7 -100 -3 0 -15 8 -25 17 -28 25 -115 28
-158 6 -60 -31 -75 -71 -75 -198 0 -127 15 -167 75 -198 43 -22 130 -19 158 6
23 21 32 21 32 2 0 -12 13 -15 55 -15 l55 0 0 290 0 290 -55 0 -55 0 0 -100z
m-24 -181 c15 -17 19 -36 19 -94 0 -89 -17 -115 -76 -115 -54 0 -69 26 -69
115 0 89 15 115 69 115 26 0 44 -7 57 -21z"/>
<path d="M9403 3221 c-67 -31 -92 -105 -58 -171 20 -38 59 -58 132 -66 32 -4
66 -11 76 -16 20 -10 22 -39 5 -56 -19 -19 -97 -14 -146 9 l-44 22 -30 -31
c-35 -35 -32 -44 25 -74 51 -25 155 -35 214 -19 62 17 103 68 103 129 0 81
-40 115 -148 128 -74 8 -102 24 -86 51 15 25 93 29 134 8 35 -18 41 -16 70 25
l21 29 -43 22 c-61 32 -169 36 -225 10z"/>
<path d="M10705 3226 c-40 -17 -82 -67 -95 -114 -22 -82 -5 -197 37 -244 52
-60 171 -75 259 -34 68 31 73 42 37 77 l-29 29 -39 -20 c-65 -33 -123 -22
-150 29 -8 17 -15 32 -15 36 0 3 61 5 136 5 l137 0 -5 69 c-6 86 -32 132 -92
160 -49 24 -135 27 -181 7z m131 -84 c13 -8 34 -46 34 -61 0 -7 -30 -11 -81
-11 -79 0 -80 0 -73 23 11 39 35 57 73 57 20 0 41 -4 47 -8z"/>
<path d="M11149 3231 c-14 -4 -35 -14 -47 -20 l-22 -12 20 -39 20 -39 35 14
c72 31 155 10 155 -39 0 -22 -5 -23 -74 -29 -124 -9 -176 -48 -176 -132 0 -79
53 -125 142 -125 25 0 57 8 76 20 26 16 32 17 32 5 0 -11 13 -15 55 -15 l55 0
0 163 c0 174 -5 195 -52 230 -21 16 -46 21 -110 23 -46 2 -95 0 -109 -5z m161
-275 c0 -39 -12 -51 -58 -61 -42 -9 -82 15 -82 50 0 32 24 44 88 45 l52 0 0
-34z"/>
<path d="M11710 3233 c-8 -3 -25 -15 -37 -26 l-23 -20 0 21 c0 20 -5 22 -60
22 l-60 0 0 -205 0 -205 60 0 60 0 0 135 c0 132 1 137 26 162 25 25 52 27 96
9 13 -6 22 3 42 42 l25 49 -25 12 c-26 11 -78 14 -104 4z"/>
<path d="M8630 3025 l0 -205 55 0 55 0 0 205 0 205 -55 0 -55 0 0 -205z"/>
<path d="M9923 3218 c2 -7 33 -100 68 -205 l64 -193 50 0 50 0 34 118 c19 64
37 121 41 125 4 5 11 -4 14 -20 4 -15 21 -72 37 -125 l30 -98 49 0 48 0 66
198 c36 108 66 201 66 205 0 4 -26 7 -57 5 l-58 -3 -31 -118 c-18 -65 -34
-121 -37 -124 -5 -4 -24 56 -68 205 l-12 43 -45 -3 -45 -3 -35 -123 c-19 -68
-38 -119 -42 -115 -4 4 -22 61 -40 126 l-32 117 -60 0 c-44 0 -59 -3 -55 -12z"/>
</g>
</svg>
